:FULLY-SPECIFIED
:FORCE-ALL-JOINTS-BE-3DOF
:DEGREES
1
root 6.24314 16.836 -28.1378 9.0217 -2.52979 -3.05774
lfemur -20.3712 2.30257 -19.9954
ltibia 35.927 0 0
lfoot -38.654 3.93715 0
ltoes 38.9541 0 0
rfemur -19.4747 0.22019 19.5256
rtibia 36.0342 0 0
rfoot -30.3779 -10.4967 0
rtoes 21.4483 0 0
lowerback -2.05144 3.66971 -5.03766
upperback -2.66728 5.00355 3.49279
thorax -2.36397 2.67023 6.42441
lowerneck -9.84699 -2.36864 1.94815
upperneck -1.37933 -3.32542 -1.65382
head 1.16433 -1.69823 -0.975663
lclavicle -1.65488e-14 -3.69739e-14 0
lhumerus -41.7253 -10.8128 99.8312
lradius 34.5094 0 0
lwrist 2.17521 0 0
lhand -10.5949 9.65639 0
lfingers 7.12502 0 0
lthumb 15.4107 39.062 0
rclavicle -1.65488e-14 -3.69739e-14 0
rhumerus -43.273 -4.86223 -84.2703
rradius 40.4763 0 0
rwrist 9.89469 0 0
rhand -23.7965 -22.476 0
rfingers 7.12502 0 0
rthumb 2.67393 -52.439 0
2
root 6.18354 16.8541 -28.1906 9.86725 -3.15787 -3.30243
lfemur -20.77 1.87825 -20.0796
ltibia 35.6804 -0 0
lfoot -39.3917 4.72056 0.122604
ltoes 39.1741 -0 0
rfemur -16.7425 2.042 18.8942
rtibia 33.48 -0 0
rfoot -32.2284 -11.7751 -0.632376
rtoes 23.8239 -0 0
lowerback -3.0704 3.97153 -4.89999
upperback -2.94192 5.45657 3.52974
thorax -2.13976 2.88515 6.36844
lowerneck -9.74385 -2.40524 2.06629
upperneck -1.45037 -3.38221 -1.76645
head 1.1198 -1.73016 -1.03348
lclavicle -4.81455e-14 -4.10674e-14 -2.38292e-31
lhumerus -41.8081 -10.2306 99.9597
lradius 33.8953 -0 0
lwrist 1.69119 0 0
lhand -11.7166 7.60234 0.01678
lfingers 7.12502 -0 0
lthumb 14.3356 37.1404 0.0362881
rclavicle -4.81455e-14 -4.10674e-14 -2.38292e-31
rhumerus -43.6182 -3.87098 -85.4467
rradius 39.1727 -0 0
rwrist 11.7333 0 0
rhand -23.6574 -22.2816 -0.00814404
rfingers 7.12502 -0 0
rthumb 2.80827 -52.2453 -0.00786436
3
root 6.12284 16.8741 -28.2379 10.7442 -3.84832 -3.50726
lfemur -21.1237 1.45227 -20.223
ltibia 35.3563 -0 0
lfoot -40.1186 5.55087 0.255806
ltoes 39.3747 -0 0
rfemur -13.9763 3.91538 18.2912
rtibia 30.8036 -0 0
rfoot -34.0838 -13.0295 -1.30591
rtoes 26.2753 -0 0
lowerback -4.19153 4.27758 -4.75535
upperback -3.21149 5.91418 3.51781
thorax -1.84781 3.09933 6.26484
lowerneck -9.63853 -2.43261 2.19198
upperneck -1.52552 -3.42784 -1.852
head 1.07402 -1.75595 -1.08353
lclavicle -9.00265e-14 -4.58677e-14 2.39793e-30
lhumerus -41.9205 -9.61199 100.014
lradius 33.3051 -0 0
lwrist 1.24376 0 0
lhand -12.9536 4.83067 -0.0190638
lfingers 7.12502 -0 0
lthumb 13.1485 34.5089 0.0249607
rclavicle -9.00265e-14 -4.58677e-14 2.39793e-30
rhumerus -44.056 -2.84141 -86.7115
rradius 37.961 -0 0
rwrist 13.5676 0 0
rhand -23.5397 -22.077 -0.0167274
rfingers 7.12502 -0 0
rthumb 2.92191 -52.0418 -0.0161506
4
root 6.23329 16.8525 -28.0886 9.27418 -3.11946 -2.60389
lfemur -19.9756 2.29805 -20.5522
ltibia 35.2289 0 0
lfoot -38.5729 4.37367 0
ltoes 38.7791 0 0
rfemur -19.0092 0.404986 18.9796
rtibia 34.9338 0 0
rfoot -30.5489 -10.4701 0
rtoes 22.129 0 0
lowerback -2.97438 3.68294 -4.9218
upperback -2.61913 5.04544 3.07234
thorax -1.75124 2.66143 5.98606
lowerneck -9.82686 -2.28344 2.0165
upperneck -1.41675 -3.22392 -1.41065
head 1.15294 -1.64258 -0.905956
lclavicle -1.09108e-13 -4.33351e-14 0
lhumerus -42.0008 -10.4886 99.1718
lradius 34.7247 0 0
lwrist 2.50452 0 0
lhand -11.6336 3.19806 0
lfingers 7.12502 0 0
lthumb 14.41 32.6778 0
rclavicle -1.09108e-13 -4.33351e-14 0
rhumerus -43.9079 -4.43773 -85.0134
rradius 41.3047 0 0
rwrist 9.85575 0 0
rhand -23.9891 -22.3842 0
rfingers 7.12502 0 0
rthumb 2.48792 -52.3495 0
5
root 6.23909 16.8512 -28.0815 9.19592 -3.0745 -2.56314
lfemur -19.9212 2.34179 -20.5623
ltibia 35.2304 -0 0
lfoot -38.4941 4.30784 -0.0123001
ltoes 38.7505 -0 0
rfemur -19.2748 0.223824 19.0297
rtibia 35.1591 -0 0
rfoot -30.3636 -10.3363 0.0629162
rtoes 21.9071 -0 0
lowerback -2.90099 3.65227 -4.93206
upperback -2.58902 5.00035 3.05404
thorax -1.75331 2.63897 5.97677
lowerneck -9.83681 -2.27676 2.00666
upperneck -1.41068 -3.21461 -1.39074
head 1.15715 -1.63739 -0.897618
lclavicle -1.0902e-13 -4.313e-14 -2.05204e-31
lhumerus -42.0014 -10.5375 99.1361
lradius 34.7953 -0 0
lwrist 2.56564 0 0
lhand -11.5537 3.18881 0.00262983
lfingers 7.12502 -0 0
lthumb 14.4865 32.6574 0.000410749
rclavicle -1.0902e-13 -4.313e-14 -2.05204e-31
rhumerus -43.8941 -4.52491 -84.9173
rradius 41.4673 -0 0
rwrist 9.665 0 0
rhand -24.0098 -22.401 0.000776192
rfingers 7.12502 -0 0
rthumb 2.46788 -52.3663 0.000749742
6
root 6.24515 16.8498 -28.0741 9.11422 -3.02744 -2.52082
lfemur -19.8644 2.3874 -20.5726
ltibia 35.2321 -0 0
lfoot -38.4119 4.23908 -0.025025
ltoes 38.7206 -0 0
rfemur -19.552 0.0350068 19.0832
rtibia 35.3943 -0 0
rfoot -30.1706 -10.1963 0.128052
rtoes 21.6743 -0 0
lowerback -2.82416 3.62029 -4.94285
upperback -2.5576 4.95334 3.03505
thorax -1.75562 2.61556 5.9672
lowerneck -9.84719 -2.2698 1.99639
upperneck -1.40432 -3.20492 -1.37005
head 1.16154 -1.63199 -0.888944
lclavicle -1.08906e-13 -4.29126e-14 -4.21478e-31
lhumerus -42.0019 -10.5885 99.0989
lradius 34.869 -0 0
lwrist 2.62934 0 0
lhand -11.4701 3.18088 0.00539324
lfingers 7.12502 -0 0
lthumb 14.5665 32.6379 0.000878385
rclavicle -1.08906e-13 -4.29126e-14 -4.21478e-31
rhumerus -43.8797 -4.61597 -84.8168
rradius 41.6366 -0 0
rwrist 9.46592 0 0
rhand -24.0311 -22.4183 0.00154425
rfingers 7.12502 -0 0
rthumb 2.44734 -52.3836 0.00149241
